<?xml version="1.0" encoding="UTF-8"?>
<svg id="Calque_1" xmlns="http://www.w3.org/2000/svg" width="1366" height="768" viewBox="0 0 1366 768">
  <defs>
    <style>
      .cls-1 {
        fill: none;
      }

      .cls-2 {
        fill: #009245;
      }

      .cls-3 {
        fill: #ccc;
      }

      .cls-4 {
        fill: #f7931e;
      }

      .cls-5 {
        fill: #333;
      }

      .cls-6 {
        fill: #666;
        stroke: #000;
        stroke-miterlimit: 10;
        stroke-width: .25px;
      }
    </style>
  </defs>
  <rect class="cls-6" width="1366" height="768"/>
  <g>
    <rect class="cls-1" x="619.93" y="360.67" width="126.15" height="38.06"/>
    <path class="cls-3" d="M641.95,362.79h8.89l-9.96,35.23h-10.96l-9.99-35.23h9.77l5.81,27.29h.46l5.98-27.29Z"/>
    <path class="cls-3" d="M678.37,398.02h-23.29v-35.23h23.29v7.2h-14.33v7.03h13.43v6.59h-13.43v7.2h14.33v7.2Z"/>
    <path class="cls-3" d="M702.54,384.98h9.11c0,8.69-5,13.75-13.65,13.75s-14.43-5.37-14.43-14.43v-7.79c0-9.06,5.37-14.43,14.43-14.43s13.6,5.05,13.6,13.89h-9.11c0-3.93-1.81-6.4-4.69-6.4-3.2,0-4.88,2.39-4.88,6.93v7.79c0,4.57,1.71,6.93,5.03,6.93,2.83,0,4.59-2.39,4.59-6.25Z"/>
    <path class="cls-3" d="M723.64,398.02v-28.03h-9.67v-7.2h28.27v7.2h-9.67v28.03h-8.94Z"/>
  </g>
  <rect class="cls-5" x="621.46" y="401.33" width="28.38" height="6"/>
  <rect class="cls-3" x="652.26" y="401.33" width="28.38" height="6"/>
  <rect class="cls-4" x="683.06" y="401.33" width="28.38" height="6"/>
  <rect class="cls-2" x="713.86" y="401.33" width="28.38" height="6"/>
</svg>